<?xml version="1.0" encoding="UTF-8" standalone="no"?>
<svg
   xmlns:dc="http://purl.org/dc/elements/1.1/"
   xmlns:cc="http://creativecommons.org/ns#"
   xmlns:rdf="http://www.w3.org/1999/02/22-rdf-syntax-ns#"
   xmlns:svg="http://www.w3.org/2000/svg"
   xmlns="http://www.w3.org/2000/svg"
   id="svg1621"
   version="1.1"
   viewBox="0 0 210 297"
   height="297mm"
   width="210mm">
  <defs
     id="defs1615" />
  <metadata
     id="metadata1618">
    <rdf:RDF>
      <cc:Work
         rdf:about="">
        <dc:format>image/svg+xml</dc:format>
        <dc:type
           rdf:resource="http://purl.org/dc/dcmitype/StillImage" />
        <dc:title></dc:title>
      </cc:Work>
    </rdf:RDF>
  </metadata>
  <g
     id="layer1">
    <path
       id="path1594-2"
       d="m 45.551132,145.81373 c -0.43136,-0.009 -2.031827,-0.0994 -2.044062,-0.11465 -0.0053,-0.007 -0.382028,-0.97092 -0.837703,-2.14352 l -0.828492,-2.13172 -0.857493,-0.20292 c -1.930656,-0.45696 -3.375947,-1.00308 -5.365103,-2.02697 l -0.186887,-0.0962 -2.005567,1.11795 -2.005581,1.11787 -0.665952,-0.49359 c -1.461806,-1.08342 -2.706688,-2.21911 -3.925608,-3.58143 l -0.552902,-0.61793 0.930027,-2.09905 0.92998,-2.09915 -0.114576,-0.17717 c -1.129382,-1.74709 -1.883119,-3.29684 -2.507771,-5.15648 l -0.280551,-0.83514 -2.199009,-0.62992 c -1.209439,-0.34642 -2.204516,-0.63357 -2.211333,-0.63805 -0.0069,-0.007 -0.07485,-0.39839 -0.151201,-0.87536 -0.194395,-1.21445 -0.324817,-4.02453 -0.241425,-5.21331 0.03257,-0.46708 0.0639,-0.85269 0.06955,-0.85698 0.006,-0.007 0.972386,-0.37893 2.148233,-0.83239 l 2.13793,-0.82459 0.149162,-0.68494 c 0.39815,-1.82814 1.102486,-3.7251 2.053552,-5.5307 l 0.09838,-0.18679 -1.121249,-2.00563 -1.121239,-2.00555 0.466159,-0.63678 c 1.036362,-1.41575 2.313236,-2.81507 3.628492,-3.97637 l 0.591626,-0.52237 2.100032,0.93294 2.100046,0.93299 0.17707,-0.11423 c 1.750054,-1.12868 3.312858,-1.88539 5.153604,-2.49558 l 0.835034,-0.276744 0.625977,-2.199047 c 0.344266,-1.209503 0.629057,-2.204039 0.632832,-2.210012 0.0033,-0.0065 0.384983,-0.0727 0.847172,-0.147636 1.17636,-0.191264 3.987046,-0.318509 5.214463,-0.234005 0.482075,0.03266 0.880622,0.06449 0.885494,0.06957 0.0054,0.0065 0.382023,0.970879 0.83773,2.143334 l 0.828507,2.131808 0.857464,0.202929 c 1.930651,0.457003 3.375962,1.003073 5.36508,2.027053 l 0.186935,0.0961 2.005537,-1.1179 2.005571,-1.117866 0.666013,0.494048 c 1.468287,1.088888 2.71329,2.224568 3.925958,3.580918 l 0.552505,0.61803 -0.929994,2.09891 -0.930022,2.09914 0.112939,0.17727 c 1.20172,1.88684 1.877714,3.27594 2.509399,5.15634 l 0.280583,0.83528 2.198996,0.62997 c 1.209424,0.34646 2.204506,0.63357 2.211323,0.63795 0.0069,0.007 0.07533,0.3984 0.151975,0.87537 0.193443,1.20194 0.322993,4.01206 0.240011,5.21335 -0.0322,0.46708 -0.0631,0.85269 -0.06876,0.85708 -0.006,0.007 -0.972391,0.37879 -2.148252,0.83224 l -2.137921,0.82455 -0.149166,0.68503 c -0.39816,1.82809 -1.102477,3.7251 -2.053525,5.5307 l -0.09839,0.18684 1.122028,2.00684 1.122019,2.00704 -0.50039,0.67551 c -1.080243,1.45831 -2.203801,2.68965 -3.557455,3.89854 l -0.627056,0.56003 -2.101516,-0.93369 -2.101469,-0.93355 -0.177065,0.11502 c -1.711391,1.11203 -3.53628,1.98683 -5.320612,2.55041 l -0.668496,0.21119 -0.625731,2.20399 c -0.344182,1.21226 -0.628764,2.20894 -0.632408,2.21482 -0.0028,0.007 -0.372332,0.0685 -0.819308,0.13886 -0.781776,0.12333 -3.353748,0.3055 -4.084047,0.2893 z m 2.808954,-8.23509 c 3.188054,-0.43848 6.349198,-1.89113 8.8668,-4.07436 0.717877,-0.62251 2.114376,-2.1529 2.66878,-2.92453 2.052228,-2.8566 3.254009,-6.44979 3.258703,-9.74299 4.67e-4,-0.37054 0.0054,-0.75629 0.01101,-0.85712 0.02081,-0.38188 -0.17874,-2.15794 -0.328345,-2.92332 -0.574296,-2.93793 -1.963455,-5.76965 -3.941057,-8.03398 -0.630332,-0.72171 -1.870972,-1.87923 -2.620644,-2.44495 -1.239106,-0.93518 -2.530668,-1.67224 -3.92188,-2.23838 -6.50421,-2.6469 -13.977391,-1.13951 -18.852865,3.80232 -1.063646,1.07825 -1.820537,2.04432 -2.558651,3.26586 -3.17273,5.25074 -3.342301,11.72436 -0.44973,17.16883 1.823831,3.43277 4.999962,6.32851 8.581206,7.82363 2.961159,1.2362 6.03382,1.62628 9.286741,1.17899 z"
       style="fill:#307177;fill-opacity:1;stroke:none;stroke-width:1.19223785;stroke-miterlimit:4;stroke-dasharray:none;stroke-opacity:1" />
    <path
       d="M 46.854587,138.39378 A 18.242619,18.119358 0 0 1 27.693093,121.30436 18.242619,18.119358 0 0 1 44.829908,102.21114 18.242619,18.119358 0 0 1 64.114375,119.16355 18.242619,18.119358 0 0 1 47.115942,138.37842"
       id="path1637-2"
       style="opacity:1;fill:#307177;fill-opacity:1;stroke:none;stroke-width:0.88991207;stroke-linecap:round;stroke-linejoin:miter;stroke-miterlimit:4;stroke-dasharray:none;stroke-opacity:1;paint-order:markers stroke fill" />
    <flowRoot
       transform="matrix(0.86374826,-0.00149644,-0.07405352,0.86012838,-503.37322,2197.5463)"
       style="font-style:normal;font-variant:normal;font-weight:normal;font-stretch:normal;font-size:40px;line-height:1.25;font-family:sans-serif;-inkscape-font-specification:'sans-serif, Normal';font-variant-ligatures:normal;font-variant-caps:normal;font-variant-numeric:normal;font-feature-settings:normal;text-align:start;letter-spacing:0px;word-spacing:0px;writing-mode:lr-tb;text-anchor:start;fill:#ffffff;fill-opacity:1;stroke:none"
       id="flowRoot4955-89-1-2-1-6-6"
       xml:space="preserve"><flowRegion
         style="font-style:normal;font-variant:normal;font-weight:normal;font-stretch:normal;font-size:40px;font-family:sans-serif;-inkscape-font-specification:'sans-serif, Normal';font-variant-ligatures:normal;font-variant-caps:normal;font-variant-numeric:normal;font-feature-settings:normal;text-align:start;writing-mode:lr-tb;text-anchor:start;fill:#ffffff;fill-opacity:1"
         id="flowRegion4957-6-1-4-2-7-9"><rect
           style="font-style:normal;font-variant:normal;font-weight:normal;font-stretch:normal;font-size:40px;font-family:sans-serif;-inkscape-font-specification:'sans-serif, Normal';font-variant-ligatures:normal;font-variant-caps:normal;font-variant-numeric:normal;font-feature-settings:normal;text-align:start;writing-mode:lr-tb;text-anchor:start;fill:#ffffff;fill-opacity:1"
           y="-2436.2478"
           x="88.893425"
           height="89.90358"
           width="680.84283"
           id="rect4959-18-7-3-9-4-1" /></flowRegion><flowPara
         style="font-style:normal;font-variant:normal;font-weight:bold;font-stretch:condensed;font-size:40px;font-family:'Agency FB';-inkscape-font-specification:'Agency FB Condensed';font-variant-ligatures:normal;font-variant-caps:normal;font-variant-numeric:normal;font-feature-settings:normal;text-align:center;writing-mode:lr-tb;text-anchor:middle;fill:#ffffff;fill-opacity:1"
         id="flowPara4963-8-0-2-7-3-9">NS</flowPara></flowRoot>  </g>
</svg>
